<?xml version="1.0" encoding="UTF-8"?>
<!--
  VS Code Codicons sprite. SVG paths are reproduced verbatim from the
  Microsoft VS Code Codicons project (src/icons/<name>.svg).
  License: CC BY 4.0 - https://creativecommons.org/licenses/by/4.0/
  Attribution: see app/web2/public/NOTICE
-->
<svg xmlns="http://www.w3.org/2000/svg" style="display:none" aria-hidden="true">
  <defs>
    <!-- play -->
    <symbol id="i-play" viewBox="0 0 16 16"><path fill="currentColor" d="M4.74514 3.06414C4.41183 2.87665 4 3.11751 4 3.49993V12.5002C4 12.8826 4.41182 13.1235 4.74512 12.936L12.7454 8.43601C13.0852 8.24486 13.0852 7.75559 12.7454 7.56443L4.74514 3.06414ZM3 3.49993C3 2.35268 4.2355 1.63011 5.23541 2.19257L13.2357 6.69286C14.2551 7.26633 14.2551 8.73415 13.2356 9.30759L5.23537 13.8076C4.23546 14.37 3 13.6474 3 12.5002V3.49993Z"/></symbol>
    <!-- debug-pause -->
    <symbol id="i-pause" viewBox="0 0 16 16"><path fill="currentColor" d="M5.5 2.75V13.25C5.5 13.664 5.164 14 4.75 14C4.336 14 4 13.664 4 13.25V2.75C4 2.336 4.336 2 4.75 2C5.164 2 5.5 2.336 5.5 2.75ZM11.25 2C10.836 2 10.5 2.336 10.5 2.75V13.25C10.5 13.664 10.836 14 11.25 14C11.664 14 12 13.664 12 13.25V2.75C12 2.336 11.664 2 11.25 2Z"/></symbol>
    <!-- debug-stop -->
    <symbol id="i-stop" viewBox="0 0 16 16"><path fill="currentColor" d="M12.5 3.5V12.5H3.5V3.5H12.5ZM12.5 2H3.5C2.672 2 2 2.672 2 3.5V12.5C2 13.328 2.672 14 3.5 14H12.5C13.328 14 14 13.328 14 12.5V3.5C14 2.672 13.328 2 12.5 2Z"/></symbol>
    <!-- remove -->
    <symbol id="i-minus" viewBox="0 0 16 16"><path fill="currentColor" d="M1 7.5C1 7.22386 1.22386 7 1.5 7H13.5C13.7761 7 14 7.22386 14 7.5C14 7.77614 13.7761 8 13.5 8H1.5C1.22386 8 1 7.77614 1 7.5Z"/></symbol>
    <!-- add -->
    <symbol id="i-plus" viewBox="0 0 16 16"><path fill="currentColor" d="M8 1.5C8 1.22386 7.77614 1 7.5 1C7.22386 1 7 1.22386 7 1.5V7H1.5C1.22386 7 1 7.22386 1 7.5C1 7.77614 1.22386 8 1.5 8H7V13.5C7 13.7761 7.22386 14 7.5 14C7.77614 14 8 13.7761 8 13.5V8H13.5C13.7761 8 14 7.77614 14 7.5C14 7.22386 13.7761 7 13.5 7H8V1.5Z"/></symbol>
    <!-- cloud-download -->
    <symbol id="i-download" viewBox="0 0 16 16"><path fill="currentColor" d="M11.5 7C9.015 7 7 9.015 7 11.5C7 13.985 9.015 16 11.5 16C13.985 16 16 13.985 16 11.5C16 9.015 13.985 7 11.5 7ZM13.854 11.854L11.854 13.854C11.806 13.902 11.751 13.938 11.692 13.963C11.634 13.987 11.57 14 11.504 14.001H11.498C11.431 14.001 11.368 13.987 11.31 13.963C11.252 13.939 11.197 13.903 11.15 13.857L11.147 13.854L9.147 11.854C8.952 11.659 8.952 11.342 9.147 11.147C9.342 10.952 9.659 10.952 9.854 11.147L11 12.294V9.001C11 8.725 11.224 8.501 11.5 8.501C11.776 8.501 12 8.725 12 9.001V12.294L13.146 11.147C13.341 10.952 13.658 10.952 13.853 11.147C14.048 11.342 14.048 11.659 13.853 11.854H13.854ZM4.25 12H6V13H4.25C2.455 13 1 11.545 1 9.75C1 8.029 2.338 6.62 4.03 6.507C4.273 4.53 5.958 3 8 3C9.862 3 11.411 4.278 11.857 6H10.811C10.397 4.838 9.303 4 8 4C6.343 4 5 5.343 5 7C5 7.276 4.776 7.5 4.5 7.5H4.25C3.007 7.5 2 8.507 2 9.75C2 10.993 3.007 12 4.25 12Z"/></symbol>
    <!-- Layout icons — verbatim from microsoft/vscode-codicons (MIT):
           src/icons/layout-{sidebar-left,panel,sidebar-right}{,-off}.svg -->
    <symbol id="i-layout-left" viewBox="0 0 16 16">
      <path fill="currentColor" d="M12.5 1C13.881 1 15 2.119 15 3.5V12.5C15 13.881 13.881 15 12.5 15H3.5C2.119 15 1 13.881 1 12.5V3.5C1 2.119 2.119 1 3.5 1H12.5ZM12.5 14C13.328 14 14 13.328 14 12.5V3.5C14 2.672 13.328 2 12.5 2H7V14H12.5Z"/>
    </symbol>
    <symbol id="i-layout-left-off" viewBox="0 0 16 16">
      <path fill="currentColor" d="M1 3.5V12.5C1 13.879 2.122 15 3.5 15H12.5C13.878 15 15 13.879 15 12.5V3.5C15 2.122 13.878 1 12.5 1H3.5C2.122 1 1 2.122 1 3.5ZM12.5 14H7V2H12.5C13.327 2 14 2.673 14 3.5V12.5C14 13.327 13.327 14 12.5 14ZM2 3.5C2 2.673 2.673 2 3.5 2H6V14H3.5C2.673 14 2 13.327 2 12.5V3.5Z"/>
    </symbol>
    <symbol id="i-layout-bottom" viewBox="0 0 16 16">
      <path fill="currentColor" d="M15 12.5C15 13.881 13.881 15 12.5 15H3.5C2.119 15 1 13.881 1 12.5V3.5C1 2.119 2.119 1 3.5 1H12.5C13.881 1 15 2.119 15 3.5V12.5ZM2 10H14V3.5C14 2.672 13.328 2 12.5 2H3.5C2.672 2 2 2.672 2 3.5V10Z"/>
    </symbol>
    <symbol id="i-layout-bottom-off" viewBox="0 0 16 16">
      <path fill="currentColor" d="M12.5 1H3.5C2.122 1 1 2.121 1 3.5V12.5C1 13.879 2.122 15 3.5 15H12.5C13.878 15 15 13.879 15 12.5V3.5C15 2.121 13.878 1 12.5 1ZM14 12.5C14 13.327 13.327 14 12.5 14H3.5C2.673 14 2 13.327 2 12.5V11H14V12.5ZM14 10H2V3.5C2 2.673 2.673 2 3.5 2H12.5C13.327 2 14 2.673 14 3.5V10Z"/>
    </symbol>
    <symbol id="i-layout-right" viewBox="0 0 16 16">
      <path fill="currentColor" d="M12.5 1C13.881 1 15 2.119 15 3.5V12.5C15 13.881 13.881 15 12.5 15H3.5C2.119 15 1 13.881 1 12.5V3.5C1 2.119 2.119 1 3.5 1H12.5ZM9 14V2H3.5C2.672 2 2 2.672 2 3.5V12.5C2 13.328 2.672 14 3.5 14H9Z"/>
    </symbol>
    <symbol id="i-layout-right-off" viewBox="0 0 16 16">
      <path fill="currentColor" d="M12.5 1H3.5C2.122 1 1 2.122 1 3.5V12.5C1 13.879 2.122 15 3.5 15H12.5C13.878 15 15 13.879 15 12.5V3.5C15 2.122 13.878 1 12.5 1ZM2 12.5V3.5C2 2.673 2.673 2 3.5 2H9V14H3.5C2.673 14 2 13.327 2 12.5ZM14 12.5C14 13.327 13.327 14 12.5 14H10V2H12.5C13.327 2 14 2.673 14 3.5V12.5Z"/>
    </symbol>
    <!-- close -->
    <symbol id="i-close" viewBox="0 0 16 16"><path fill="currentColor" d="M8.70701 8.00001L12.353 4.35401C12.548 4.15901 12.548 3.84201 12.353 3.64701C12.158 3.45201 11.841 3.45201 11.646 3.64701L8.00001 7.29301L4.35401 3.64701C4.15901 3.45201 3.84201 3.45201 3.64701 3.64701C3.45201 3.84201 3.45201 4.15901 3.64701 4.35401L7.29301 8.00001L3.64701 11.646C3.45201 11.841 3.45201 12.158 3.64701 12.353C3.74501 12.451 3.87301 12.499 4.00101 12.499C4.12901 12.499 4.25701 12.45 4.35501 12.353L8.00101 8.70701L11.647 12.353C11.745 12.451 11.873 12.499 12.001 12.499C12.129 12.499 12.257 12.45 12.355 12.353C12.55 12.158 12.55 11.841 12.355 11.646L8.70901 8.00001H8.70701Z"/></symbol>
    <!-- chevron-down (twistie; CSS rotates -90deg when collapsed) -->
    <symbol id="i-chevron" viewBox="0 0 16 16"><path fill="currentColor" d="M3.14598 5.85423L7.64598 10.3542C7.84098 10.5492 8.15798 10.5492 8.35298 10.3542L12.853 5.85423C13.048 5.65923 13.048 5.34223 12.853 5.14723C12.658 4.95223 12.341 4.95223 12.146 5.14723L7.99998 9.29323L3.85398 5.14723C3.65898 4.95223 3.34198 4.95223 3.14698 5.14723C2.95198 5.34223 2.95098 5.65923 3.14598 5.85423Z"/></symbol>
    <!-- debug-step-into -->
    <symbol id="i-step-into" viewBox="0 0 16 16"><path fill="currentColor" d="M10 13C10 14.103 9.10304 15 8.00004 15C6.89704 15 6.00004 14.103 6.00004 13C6.00004 11.897 6.89704 11 8.00004 11C9.10304 11 10 11.897 10 13ZM12.03 5.22C11.737 4.927 11.262 4.927 10.969 5.22L8.74904 7.44V1.75C8.74904 1.336 8.41304 1 7.99904 1C7.58504 1 7.24904 1.336 7.24904 1.75V7.439L5.02904 5.219C4.73604 4.926 4.26104 4.926 3.96804 5.219C3.67504 5.512 3.67504 5.987 3.96804 6.28L7.46804 9.78C7.61404 9.926 7.80604 10 7.99804 10C8.19004 10 8.38204 9.927 8.52804 9.78L12.028 6.28C12.321 5.987 12.321 5.512 12.028 5.219L12.03 5.22Z"/></symbol>
    <!-- debug-step-over -->
    <symbol id="i-step-over" viewBox="0 0 16 16"><path fill="currentColor" d="M9.99993 13C9.99993 14.103 9.10293 15 7.99993 15C6.89693 15 5.99993 14.103 5.99993 13C5.99993 11.897 6.89693 11 7.99993 11C9.10293 11 9.99993 11.897 9.99993 13ZM13.2499 2C12.8359 2 12.4999 2.336 12.4999 2.75V4.027C11.3829 2.759 9.75993 2 7.99993 2C5.03293 2 2.47993 4.211 2.06093 7.144C2.00193 7.554 2.28793 7.934 2.69793 7.993C2.73393 7.999 2.76993 8.001 2.80493 8.001C3.17193 8.001 3.49293 7.731 3.54693 7.357C3.86093 5.159 5.77593 3.501 8.00093 3.501C9.52993 3.501 10.9199 4.264 11.7439 5.501H9.75093C9.33693 5.501 9.00093 5.837 9.00093 6.251C9.00093 6.665 9.33693 7.001 9.75093 7.001H13.2509C13.6649 7.001 14.0009 6.665 14.0009 6.251V2.751C14.0009 2.337 13.6649 2.001 13.2509 2.001L13.2499 2Z"/></symbol>
    <!-- debug-restart -->
    <symbol id="i-restart" viewBox="0 0 16 16"><path fill="currentColor" d="M14 8C14 8.81 13.842 9.596 13.528 10.336C13.224 11.053 12.791 11.694 12.241 12.243C11.694 12.791 11.053 13.224 10.337 13.528C9.59602 13.841 8.81002 14 8.00002 14C7.19002 14 6.40402 13.842 5.66402 13.528C4.94702 13.224 4.30602 12.791 3.75702 12.242C3.20802 11.693 2.77602 11.053 2.47202 10.337C2.31002 9.956 2.48802 9.516 2.86902 9.354C3.25102 9.19 3.69002 9.37 3.85202 9.751C4.08102 10.288 4.40502 10.77 4.81802 11.181C5.23002 11.595 5.71202 11.919 6.24902 12.148C7.35602 12.615 8.64302 12.615 9.75202 12.148C10.288 11.919 10.77 11.595 11.181 11.183C11.595 10.77 11.919 10.288 12.148 9.751C12.381 9.197 12.501 8.608 12.501 8C12.501 7.392 12.382 6.803 12.148 6.248C11.919 5.712 11.595 5.23 11.182 4.819C10.77 4.405 10.288 4.081 9.75102 3.852C8.64402 3.385 7.35702 3.385 6.24802 3.852C5.71202 4.081 5.23002 4.405 4.81902 4.817C4.60802 5.027 4.42002 5.256 4.25702 5.5H6.24902C6.66302 5.5 6.99902 5.836 6.99902 6.25C6.99902 6.664 6.66302 7 6.24902 7H2.74902C2.33502 7 1.99902 6.664 1.99902 6.25V2.75C1.99902 2.336 2.33502 2 2.74902 2C3.16302 2 3.49902 2.336 3.49902 2.75V4.032C3.58202 3.938 3.66802 3.845 3.75802 3.757C4.30502 3.209 4.94602 2.776 5.66202 2.472C7.14402 1.845 8.85402 1.845 10.335 2.472C11.052 2.776 11.693 3.209 12.242 3.758C12.791 4.307 13.223 4.947 13.527 5.663C13.84 6.404 13.999 7.19 13.999 8H14Z"/></symbol>
    <!-- trash -->
    <symbol id="i-trash" viewBox="0 0 16 16"><path fill="currentColor" d="M14 2H10C10 0.897 9.103 0 8 0C6.897 0 6 0.897 6 2H2C1.724 2 1.5 2.224 1.5 2.5C1.5 2.776 1.724 3 2 3H2.54L3.349 12.708C3.456 13.994 4.55 15 5.84 15H10.159C11.449 15 12.543 13.993 12.65 12.708L13.459 3H13.999C14.275 3 14.499 2.776 14.499 2.5C14.499 2.224 14.275 2 13.999 2H14ZM8 1C8.551 1 9 1.449 9 2H7C7 1.449 7.449 1 8 1ZM11.655 12.625C11.591 13.396 10.934 14 10.16 14H5.841C5.067 14 4.41 13.396 4.346 12.625L3.544 3H12.458L11.656 12.625H11.655ZM7 5.5V11.5C7 11.776 6.776 12 6.5 12C6.224 12 6 11.776 6 11.5V5.5C6 5.224 6.224 5 6.5 5C6.776 5 7 5.224 7 5.5ZM10 5.5V11.5C10 11.776 9.776 12 9.5 12C9.224 12 9 11.776 9 11.5V5.5C9 5.224 9.224 5 9.5 5C9.776 5 10 5.224 10 5.5Z"/></symbol>
    <!-- chip -->
    <symbol id="i-chip" viewBox="0 0 16 16"><path fill="currentColor" d="M14.5 8.5C14.633 8.5 14.76 8.447 14.854 8.354C14.948 8.26 15 8.133 15 8C15 7.867 14.947 7.74 14.854 7.646C14.76 7.552 14.633 7.5 14.5 7.5H13V6H14.5C14.633 6 14.76 5.947 14.854 5.854C14.948 5.76 15 5.633 15 5.5C15 5.367 14.947 5.24 14.854 5.146C14.76 5.052 14.633 5 14.5 5H13C13 4.47 12.789 3.961 12.414 3.586C12.039 3.211 11.53 3 11 3V1.5C11 1.367 10.947 1.24 10.854 1.146C10.76 1.052 10.633 1 10.5 1C10.367 1 10.24 1.053 10.146 1.146C10.052 1.24 10 1.367 10 1.5V3H8.5V1.5C8.5 1.367 8.447 1.24 8.354 1.146C8.26 1.052 8.133 1 8 1C7.867 1 7.74 1.053 7.646 1.146C7.552 1.24 7.5 1.367 7.5 1.5V3H6V1.5C6 1.367 5.947 1.24 5.854 1.146C5.76 1.052 5.633 1 5.5 1C5.367 1 5.24 1.053 5.146 1.146C5.052 1.24 5 1.367 5 1.5V3C4.47 3 3.961 3.211 3.586 3.586C3.211 3.961 3 4.47 3 5H1.5C1.367 5 1.24 5.053 1.146 5.146C1.052 5.24 1 5.367 1 5.5C1 5.633 1.053 5.76 1.146 5.854C1.24 5.948 1.367 6 1.5 6H3V7.5H1.5C1.367 7.5 1.24 7.553 1.146 7.646C1.052 7.74 1 7.867 1 8C1 8.133 1.053 8.26 1.146 8.354C1.24 8.448 1.367 8.5 1.5 8.5H3V10H1.5C1.367 10 1.24 10.053 1.146 10.146C1.052 10.24 1 10.367 1 10.5C1 10.633 1.053 10.76 1.146 10.854C1.24 10.948 1.367 11 1.5 11H3C3 11.53 3.211 12.039 3.586 12.414C3.961 12.789 4.47 13 5 13V14.5C5 14.633 5.053 14.76 5.146 14.854C5.24 14.948 5.367 15 5.5 15C5.633 15 5.76 14.947 5.854 14.854C5.948 14.76 6 14.633 6 14.5V13H7.5V14.5C7.5 14.633 7.553 14.76 7.646 14.854C7.74 14.948 7.867 15 8 15C8.133 15 8.26 14.947 8.354 14.854C8.448 14.76 8.5 14.633 8.5 14.5V13H10V14.5C10 14.633 10.053 14.76 10.146 14.854C10.24 14.948 10.367 15 10.5 15C10.633 15 10.76 14.947 10.854 14.854C10.948 14.76 11 14.633 11 14.5V13C11.53 13 12.039 12.789 12.414 12.414C12.789 12.039 13 11.53 13 11H14.5C14.633 11 14.76 10.947 14.854 10.854C14.948 10.76 15 10.633 15 10.5C15 10.367 14.947 10.24 14.854 10.146C14.76 10.052 14.633 10 14.5 10H13V8.5H14.5ZM12 11C12 11.265 11.895 11.52 11.707 11.707C11.519 11.894 11.265 12 11 12H5C4.735 12 4.48 11.895 4.293 11.707C4.105 11.519 4 11.265 4 11V5C4 4.735 4.105 4.48 4.293 4.293C4.481 4.105 4.735 4 5 4H11C11.265 4 11.52 4.105 11.707 4.293C11.895 4.481 12 4.735 12 5V11ZM8 10.5C6.621 10.5 5.5 9.379 5.5 8C5.5 6.621 6.621 5.5 8 5.5C9.379 5.5 10.5 6.621 10.5 8C10.5 9.379 9.379 10.5 8 10.5ZM8 6.5C7.173 6.5 6.5 7.173 6.5 8C6.5 8.827 7.173 9.5 8 9.5C8.827 9.5 9.5 8.827 9.5 8C9.5 7.173 8.827 6.5 8 6.5Z"/></symbol>
    <!-- server (used as Hard Disk icon) -->
    <symbol id="i-hd" viewBox="0 0 16 16"><path fill="currentColor" d="M12 11.5C12 11.5989 11.9707 11.6956 11.9157 11.7778C11.8608 11.86 11.7827 11.9241 11.6913 11.9619C11.6 11.9998 11.4994 12.0097 11.4025 11.9904C11.3055 11.9711 11.2164 11.9235 11.1464 11.8536C11.0765 11.7836 11.0289 11.6945 11.0096 11.5975C10.9903 11.5006 11.0002 11.4 11.0381 11.3087C11.0759 11.2173 11.14 11.1392 11.2222 11.0843C11.3044 11.0293 11.4011 11 11.5 11C11.6326 11 11.7598 11.0527 11.8536 11.1464C11.9473 11.2402 12 11.3674 12 11.5ZM11.5 8C11.5989 8 11.6956 7.97068 11.7778 7.91573C11.86 7.86079 11.9241 7.7827 11.9619 7.69134C11.9998 7.59998 12.0097 7.49945 11.9904 7.40245C11.9711 7.30546 11.9235 7.21637 11.8536 7.14645C11.7836 7.07652 11.6945 7.0289 11.5975 7.00961C11.5006 6.99031 11.4 7.00022 11.3087 7.03806C11.2173 7.0759 11.1392 7.13999 11.0843 7.22221C11.0293 7.30444 11 7.40111 11 7.5C11 7.63261 11.0527 7.75979 11.1464 7.85355C11.2402 7.94732 11.3674 8 11.5 8ZM14 4.5C13.999 4.87026 13.86 5.22685 13.61 5.5C13.86 5.77315 13.999 6.12974 14 6.5V8.5C13.999 8.87026 13.86 9.22685 13.61 9.5C13.86 9.77315 13.999 10.1297 14 10.5V12.5C14 12.8978 13.842 13.2794 13.5607 13.5607C13.2794 13.842 12.8978 14 12.5 14H3.5C3.10218 14 2.72064 13.842 2.43934 13.5607C2.15804 13.2794 2 12.8978 2 12.5V10.5C2.00097 10.1297 2.14003 9.77315 2.39 9.5C2.14003 9.22685 2.00097 8.87026 2 8.5V6.5C2.00097 6.12974 2.14003 5.77315 2.39 5.5C2.14003 5.22685 2.00097 4.87026 2 4.5V2.5C2 2.10218 2.15804 1.72064 2.43934 1.43934C2.72064 1.15804 3.10218 1 3.5 1H12.5C12.8978 1 13.2794 1.15804 13.5607 1.43934C13.842 1.72064 14 2.10218 14 2.5V4.5ZM3 4.5C3 4.63261 3.05268 4.75979 3.14645 4.85355C3.24021 4.94732 3.36739 5 3.5 5H12.5C12.6326 5 12.7598 4.94732 12.8536 4.85355C12.9473 4.75979 13 4.63261 13 4.5V2.5C13 2.36739 12.9473 2.24021 12.8536 2.14645C12.7598 2.05268 12.6326 2 12.5 2H3.5C3.36739 2 3.24021 2.05268 3.14645 2.14645C3.05268 2.24021 3 2.36739 3 2.5V4.5ZM12.5 6H3.5C3.36739 6 3.24021 6.05268 3.14645 6.14645C3.05268 6.24021 3 6.36739 3 6.5V8.5C3 8.63261 3.05268 8.75979 3.14645 8.85355C3.24021 8.94732 3.36739 9 3.5 9H12.5C12.6326 9 12.7598 8.94732 12.8536 8.85355C12.9473 8.75979 13 8.63261 13 8.5V6.5C13 6.36739 12.9473 6.24021 12.8536 6.14645C12.7598 6.05268 12.6326 6 12.5 6ZM13 10.5C13 10.3674 12.9473 10.2402 12.8536 10.1464C12.7598 10.0527 12.6326 10 12.5 10H3.5C3.36739 10 3.24021 10.0527 3.14645 10.1464C3.05268 10.2402 3 10.3674 3 10.5V12.5C3 12.6326 3.05268 12.7598 3.14645 12.8536C3.24021 12.9473 3.36739 13 3.5 13H12.5C12.6326 13 12.7598 12.9473 12.8536 12.8536C12.9473 12.7598 13 12.6326 13 12.5V10.5ZM11.5 4C11.5989 4 11.6956 3.97068 11.7778 3.91573C11.86 3.86079 11.9241 3.7827 11.9619 3.69134C11.9998 3.59998 12.0097 3.49945 11.9904 3.40245C11.9711 3.30546 11.9235 3.21637 11.8536 3.14645C11.7836 3.07652 11.6945 3.0289 11.5975 3.00961C11.5006 2.99031 11.4 3.00022 11.3087 3.03806C11.2173 3.0759 11.1392 3.13999 11.0843 3.22221C11.0293 3.30444 11 3.40111 11 3.5C11 3.63261 11.0527 3.75979 11.1464 3.85355C11.2402 3.94732 11.3674 4 11.5 4Z"/></symbol>
    <!-- save (used as Floppy icon — a floppy disk IS the save icon) -->
    <symbol id="i-floppy" viewBox="0 0 16 16"><path fill="currentColor" d="M14.414 3.207L12.793 1.586C12.421 1.213 11.905 1 11.379 1H3C1.897 1 1 1.897 1 3V13C1 14.103 1.897 15 3 15H13C14.103 15 15 14.103 15 13V4.621C15 4.095 14.787 3.579 14.414 3.207ZM9 2V3.5C9 3.776 8.776 4 8.5 4H6.5C6.224 4 6 3.776 6 3.5V2H9ZM5 14V9.5C5 9.224 5.224 9 5.5 9H10.5C10.776 9 11 9.224 11 9.5V14H5ZM14 13C14 13.551 13.551 14 13 14H12V9.5C12 8.673 11.327 8 10.5 8H5.5C4.673 8 4 8.673 4 9.5V14H3C2.449 14 2 13.551 2 13V3C2 2.449 2.449 2 3 2H5V3.5C5 4.327 5.673 5 6.5 5H8.5C9.327 5 10 4.327 10 3.5V2H11.379C11.642 2 11.9 2.107 12.086 2.293L13.707 3.914C13.893 4.1 14 4.358 14 4.621V13Z"/></symbol>
    <!-- record (used as CD-ROM icon — concentric circle, like a disc) -->
    <symbol id="i-cd" viewBox="0 0 16 16"><path fill="currentColor" d="M8 12C10.2091 12 12 10.2091 12 8C12 5.79086 10.2091 4 8 4C5.79086 4 4 5.79086 4 8C4 10.2091 5.79086 12 8 12ZM8 1C4.13401 1 1 4.13401 1 8C1 11.866 4.13401 15 8 15C11.866 15 15 11.866 15 8C15 4.13401 11.866 1 8 1ZM2 8C2 4.68629 4.68629 2 8 2C11.3137 2 14 4.68629 14 8C14 11.3137 11.3137 14 8 14C4.68629 14 2 11.3137 2 8Z"/></symbol>
    <!-- vm (used as Computer / Mac model icon) -->
    <symbol id="i-computer" viewBox="0 0 16 16"><path fill="currentColor" d="M3 1C1.895 1 1 1.895 1 3V10C1 11.105 1.895 12 3 12H5V14H3.5C3.224 14 3 14.224 3 14.5C3 14.776 3.224 15 3.5 15H12.5C12.776 15 13 14.776 13 14.5C13 14.224 12.776 14 12.5 14H11V12H13C14.105 12 15 11.105 15 10V3C15 1.895 14.105 1 13 1H3ZM10 12V14H6V12H10ZM2 3C2 2.448 2.448 2 3 2H13C13.552 2 14 2.448 14 3V10C14 10.552 13.552 11 13 11H3C2.448 11 2 10.552 2 10V3Z"/></symbol>
    <!-- folder -->
    <symbol id="i-folder" viewBox="0 0 16 16"><path fill="currentColor" d="M2 4.5V6H5.58579C5.71839 6 5.84557 5.94732 5.93934 5.85355L7.29289 4.5L5.93934 3.14645C5.84557 3.05268 5.71839 3 5.58579 3H3.5C2.67157 3 2 3.67157 2 4.5ZM1 4.5C1 3.11929 2.11929 2 3.5 2H5.58579C5.98361 2 6.36514 2.15804 6.64645 2.43934L8.20711 4H12.5C13.8807 4 15 5.11929 15 6.5V11.5C15 12.8807 13.8807 14 12.5 14H3.5C2.11929 14 1 12.8807 1 11.5V4.5ZM2 7V11.5C2 12.3284 2.67157 13 3.5 13H12.5C13.3284 13 14 12.3284 14 11.5V6.5C14 5.67157 13.3284 5 12.5 5H8.20711L6.64645 6.56066C6.36514 6.84197 5.98361 7 5.58579 7H2Z"/></symbol>
    <!-- file -->
    <symbol id="i-file" viewBox="0 0 16 16"><path fill="currentColor" d="M5 1C3.89543 1 3 1.89543 3 3V13C3 14.1046 3.89543 15 5 15H11C12.1046 15 13 14.1046 13 13V5.41421C13 5.01639 12.842 4.63486 12.5607 4.35355L9.64645 1.43934C9.36514 1.15804 8.98361 1 8.58579 1H5ZM4 3C4 2.44772 4.44772 2 5 2H8V4.5C8 5.32843 8.67157 6 9.5 6H12V13C12 13.5523 11.5523 14 11 14H5C4.44772 14 4 13.5523 4 13V3ZM11.7929 5H9.5C9.22386 5 9 4.77614 9 4.5V2.20711L11.7929 5Z"/></symbol>
    <!-- unmute (used as Speaker / Sound icon) -->
    <symbol id="i-speaker" viewBox="0 0 16 16"><path fill="currentColor" d="M8.69398 2.03934C8.8792 2.11749 8.99961 2.29898 8.99961 2.50001V13.5C8.99961 13.7014 8.87875 13.8832 8.693 13.9611C8.50725 14.039 8.29289 13.9978 8.14921 13.8567L5.22278 10.9817H3.49963C2.67121 10.9817 1.99963 10.3101 1.99963 9.48172V6.49273C1.99963 5.66431 2.67121 4.99273 3.49963 4.99273H5.22402L8.15073 2.14185C8.29474 2.00157 8.50875 1.96119 8.69398 2.03934ZM7.99961 3.68507L5.77617 5.85089C5.68281 5.94184 5.55763 5.99273 5.42729 5.99273H3.49963C3.22349 5.99273 2.99963 6.21659 2.99963 6.49273V9.48172C2.99963 9.75786 3.22349 9.98172 3.49963 9.98172H5.42729C5.55836 9.98172 5.68419 10.0332 5.77769 10.125L7.99961 12.3079V3.68507ZM10.1109 5.18874C10.2828 4.97264 10.5973 4.93682 10.8135 5.10873L10.8143 5.1094L10.8152 5.11015L10.8174 5.11188L10.8228 5.11628L10.8377 5.12882C10.8495 5.13885 10.8648 5.15224 10.8831 5.16904C10.9197 5.20261 10.9685 5.2499 11.0254 5.31119C11.1389 5.43362 11.2853 5.61296 11.4303 5.85143C11.7218 6.33096 12.0039 7.04439 12.0039 7.99855C12.0039 8.95268 11.7218 9.66687 11.4305 10.1471C11.2857 10.3859 11.1393 10.5657 11.0259 10.6884C10.9692 10.7498 10.9204 10.7973 10.8839 10.8309C10.8642 10.849 10.8441 10.8666 10.8236 10.8838L10.8152 10.8907L10.8143 10.8914C10.8143 10.8914 10.368 11.1337 10.1116 10.8129C9.94006 10.5983 9.97396 10.2858 10.1868 10.1128L10.1883 10.1115L10.1876 10.1122L10.1892 10.1108L10.1883 10.1115C10.1912 10.109 10.1975 10.1036 10.2066 10.0952C10.2248 10.0784 10.2543 10.05 10.2914 10.0098C10.3659 9.92923 10.47 9.80248 10.5755 9.62847C10.7851 9.28301 11.0039 8.74609 11.0039 7.99855C11.0039 7.25106 10.7851 6.71522 10.5758 6.3709C10.4703 6.19744 10.3663 6.07121 10.292 5.99105C10.2549 5.95104 10.2255 5.92278 10.2073 5.90613C10.1982 5.89781 10.192 5.89242 10.1891 5.88995L10.1901 5.89071C9.97439 5.71873 9.93908 5.40472 10.1109 5.18874ZM11.8127 3.10886C11.5966 2.93686 11.2821 2.97255 11.1101 3.18858C10.9382 3.40451 10.9743 3.71932 11.19 3.89138L11.2011 3.9006C11.2119 3.90975 11.2295 3.92484 11.2528 3.94582C11.2994 3.98781 11.369 4.05318 11.4538 4.14133C11.6239 4.31792 11.8537 4.58411 12.0841 4.93509C12.5446 5.63643 13.0029 6.66847 13.0029 8.00405C13.0029 9.33953 12.5446 10.3694 12.0845 11.0685C11.8541 11.4184 11.6244 11.6835 11.4545 11.8593C11.3697 11.947 11.3002 12.0121 11.2536 12.0538C11.2303 12.0747 11.2128 12.0897 11.202 12.0988L11.1904 12.1083L11.1895 12.1091C10.9742 12.2808 10.9382 12.5945 11.1093 12.8105C11.2808 13.0269 11.596 13.0628 11.8125 12.8913L11.8455 12.8642C11.864 12.8487 11.8895 12.8268 11.9209 12.7986C11.9838 12.7423 12.0707 12.6607 12.1735 12.5543C12.3789 12.3418 12.6496 12.0286 12.9197 11.6183C13.4604 10.797 14.0029 9.57884 14.0029 8.00405C14.0029 6.42934 13.4605 5.20938 12.9201 4.38627C12.6501 3.97503 12.3795 3.66089 12.1742 3.4477C12.0714 3.34097 11.9846 3.25908 11.9217 3.20255C11.8903 3.17426 11.8649 3.15228 11.8464 3.13665L11.8239 3.11798L11.8169 3.11222L11.8144 3.11024L11.8127 3.10886ZM10.1891 5.88995L10.1877 5.88874L10.1891 5.88995Z"/></symbol>
    <!-- plug (used as Port / connector icon) -->
    <symbol id="i-port" viewBox="0 0 16 16"><path fill="currentColor" d="M10.723 4H10V1.5C10 1.224 9.776 1 9.5 1C9.224 1 9 1.224 9 1.5V4H7V1.5C7 1.224 6.776 1 6.5 1C6.224 1 6 1.224 6 1.5V4H5.277C4.573 4 4 4.573 4 5.278V8C4 10.036 5.529 11.722 7.5 11.969V14.5C7.5 14.776 7.724 15 8 15C8.276 15 8.5 14.776 8.5 14.5V11.969C10.471 11.722 12 10.037 12 8V5.278C12 4.573 11.427 4 10.723 4ZM11 8C11 9.654 9.654 11 8 11C6.346 11 5 9.654 5 8V5.278C5 5.125 5.124 5 5.277 5H10.722C10.875 5 10.999 5.125 10.999 5.278V8H11Z"/></symbol>
    <!-- history (used as Clock / RTC icon) -->
    <symbol id="i-clock" viewBox="0 0 16 16"><path fill="currentColor" d="M7.99909 3C10.7605 3 12.9991 5.23858 12.9991 8C12.9991 10.7614 10.7605 13 7.99909 13C5.39117 13 3.2491 11.003 3.0195 8.45512C2.99471 8.1801 2.75167 7.97723 2.47664 8.00202C2.20161 8.0268 1.99875 8.26985 2.02353 8.54488C2.29916 11.6035 4.86898 14 7.99909 14C11.3128 14 13.9991 11.3137 13.9991 8C13.9991 4.68629 11.3128 2 7.99909 2C6.20656 2 4.59815 2.78613 3.49909 4.03138V2.5C3.49909 2.22386 3.27524 2 2.99909 2C2.72295 2 2.49909 2.22386 2.49909 2.5V5.5C2.49909 5.77614 2.72295 6 2.99909 6H3.08812C3.09498 6.00014 3.10184 6.00014 3.10868 6H5.99909C6.27524 6 6.49909 5.77614 6.49909 5.5C6.49909 5.22386 6.27524 5 5.99909 5H3.99863C4.91128 3.78495 6.36382 3 7.99909 3ZM7.99909 5.5C7.99909 5.22386 7.77524 5 7.49909 5C7.22295 5 6.99909 5.22386 6.99909 5.5V8.5C6.99909 8.77614 7.22295 9 7.49909 9H9.49909C9.77524 9 9.99909 8.77614 9.99909 8.5C9.99909 8.22386 9.77524 8 9.49909 8H7.99909V5.5Z"/></symbol>
    <!-- circle-large (empty slot) -->
    <symbol id="i-empty" viewBox="0 0 16 16"><path fill="currentColor" d="M9.58854 2.2153L9.58854 2.21528C9.08311 2.07252 8.55496 2 8.00098 2C7.44699 2 6.91884 2.07252 6.41341 2.21528L6.40659 2.21721L6.40659 2.21718C5.89259 2.35843 5.41641 2.55904 4.97513 2.81819C4.5335 3.08023 4.12844 3.39515 3.75886 3.76472C3.39532 4.12826 3.08274 4.53252 2.82014 4.97935L2.81818 4.98267L2.81818 4.98267C2.55924 5.41938 2.35622 5.89379 2.21039 6.409C2.07155 6.91543 2.00098 7.44479 2.00098 8C2.00098 8.5552 2.07155 9.08455 2.21038 9.59097C2.35622 10.1062 2.55946 10.5836 2.81921 11.0259C3.08148 11.4679 3.39423 11.8729 3.75887 12.2421C4.12806 12.6068 4.53308 12.9195 4.97513 13.1818C5.41737 13.4415 5.89472 13.6447 6.40994 13.7906C6.91638 13.9294 7.44575 14 8.00098 14C8.55619 14 9.08555 13.9294 9.59198 13.7906C10.1072 13.6448 10.5816 13.4417 11.0183 13.1828L11.0216 13.1808L11.0216 13.1808C11.4685 12.9182 11.8727 12.6057 12.2363 12.2421C12.6058 11.8726 12.9207 11.4675 13.1827 11.0259C13.4419 10.5846 13.6425 10.1084 13.7838 9.59439L13.7857 9.58756L13.7857 9.58757C13.9285 9.08213 14.001 8.55398 14.001 8C14.001 7.44602 13.9285 6.91787 13.7857 6.41243L13.7838 6.40562L13.7838 6.40561C13.6425 5.8916 13.4421 5.41838 13.1838 4.98267L13.1818 4.97935L13.1818 4.97935C12.9204 4.53447 12.6069 4.13142 12.24 3.7685L12.2324 3.76097L12.2325 3.76093C11.8696 3.3941 11.4665 3.08062 11.0216 2.81916L11.0183 2.81721L11.0183 2.8172C10.5826 2.55885 10.1094 2.35844 9.59537 2.21718L9.58854 2.2153ZM14.0439 11.5342C13.7386 12.0492 13.3717 12.5208 12.9434 12.9492C12.5195 13.373 12.0479 13.7376 11.5283 14.043C11.0133 14.3483 10.4574 14.5853 9.86035 14.7539C9.26335 14.918 8.64355 15 8.00098 15C7.3584 15 6.73861 14.918 6.1416 14.7539C5.5446 14.5853 4.98633 14.3483 4.4668 14.043C3.95182 13.7376 3.48014 13.373 3.05176 12.9492C2.62793 12.5208 2.26335 12.0492 1.95801 11.5342C1.65267 11.0146 1.41569 10.4564 1.24707 9.85938C1.08301 9.26237 1.00098 8.64258 1.00098 8C1.00098 7.35742 1.08301 6.73763 1.24707 6.14062C1.41569 5.54362 1.65267 4.98763 1.95801 4.47266C2.26335 3.95312 2.62793 3.48145 3.05176 3.05762C3.48014 2.62923 3.95182 2.26237 4.4668 1.95703C4.98633 1.65169 5.5446 1.41699 6.1416 1.25293C6.73861 1.08431 7.3584 1 8.00098 1C8.64355 1 9.26335 1.08431 9.86035 1.25293C10.4574 1.41699 11.0133 1.65169 11.5283 1.95703C12.0479 2.26237 12.5195 2.62923 12.9434 3.05762C13.3717 3.48145 13.7386 3.95312 14.0439 4.47266C14.3493 4.98763 14.584 5.54362 14.748 6.14062C14.9167 6.73763 15.001 7.35742 15.001 8C15.001 8.64258 14.9167 9.26237 14.748 9.85938C14.584 10.4564 14.3493 11.0146 14.0439 11.5342Z"/></symbol>
    <!-- cloud-upload -->
    <symbol id="i-upload" viewBox="0 0 16 16"><path fill="currentColor" d="M11.5 7C9.015 7 7 9.015 7 11.5C7 13.985 9.015 16 11.5 16C13.985 16 16 13.985 16 11.5C16 9.015 13.985 7 11.5 7ZM13.854 11.854C13.659 12.049 13.342 12.049 13.147 11.854L12.001 10.708V14.001C12.001 14.277 11.777 14.501 11.501 14.501C11.225 14.501 11.001 14.277 11.001 14.001V10.708L9.855 11.854C9.66 12.049 9.343 12.049 9.148 11.854C8.953 11.659 8.953 11.342 9.148 11.147L11.148 9.147C11.196 9.099 11.251 9.063 11.31 9.039C11.368 9.015 11.432 9.001 11.498 9.001H11.504C11.571 9.001 11.634 9.015 11.692 9.039C11.75 9.063 11.805 9.099 11.852 9.145L11.855 9.148L13.855 11.148C14.05 11.343 14.05 11.66 13.855 11.855L13.854 11.854ZM4.25 12H6V13H4.25C2.455 13 1 11.545 1 9.75C1 8.029 2.338 6.62 4.03 6.507C4.273 4.53 5.958 3 8 3C9.862 3 11.411 4.278 11.857 6H10.811C10.397 4.838 9.303 4 8 4C6.343 4 5 5.343 5 7C5 7.276 4.776 7.5 4.5 7.5H4.25C3.007 7.5 2 8.507 2 9.75C2 10.993 3.007 12 4.25 12Z"/></symbol>
    <!-- vm (re-used as Mac model icon — same VM/computer shape) -->
    <symbol id="i-mac" viewBox="0 0 16 16"><path fill="currentColor" d="M3 1C1.895 1 1 1.895 1 3V10C1 11.105 1.895 12 3 12H5V14H3.5C3.224 14 3 14.224 3 14.5C3 14.776 3.224 15 3.5 15H12.5C12.776 15 13 14.776 13 14.5C13 14.224 12.776 14 12.5 14H11V12H13C14.105 12 15 11.105 15 10V3C15 1.895 14.105 1 13 1H3ZM10 12V14H6V12H10ZM2 3C2 2.448 2.448 2 3 2H13C13.552 2 14 2.448 14 3V10C14 10.552 13.552 11 13 11H3C2.448 11 2 10.552 2 10V3Z"/></symbol>
    <!-- color-mode (theme toggle: half-filled circle) -->
    <symbol id="i-color-mode" viewBox="0 0 16 16"><path fill="currentColor" d="M8 1.00195C6.61553 1.00195 5.26216 1.4125 4.11101 2.18167C2.95987 2.95084 2.06266 4.04409 1.53285 5.32317C1.00303 6.60225 0.86441 8.00972 1.13451 9.36759C1.4046 10.7255 2.07129 11.9727 3.05026 12.9517C4.02922 13.9307 5.27651 14.5974 6.63437 14.8675C7.99224 15.1375 9.3997 14.9989 10.6788 14.4691C11.9579 13.9393 13.0511 13.0421 13.8203 11.8909C14.5895 10.7398 15 9.38642 15 8.00195C15 6.14544 14.2625 4.36496 12.9498 3.05221C11.637 1.73945 9.85652 1.00195 8 1.00195ZM8 14.002V2.00195C9.5913 2.00195 11.1174 2.63409 12.2426 3.75931C13.3679 4.88453 14 6.41065 14 8.00195C14 9.59325 13.3679 11.1194 12.2426 12.2446C11.1174 13.3698 9.5913 14.002 8 14.002Z"/></symbol>
    <!-- sign-out (Shut Down — leave the running session, return to Welcome) -->
    <symbol id="i-sign-out" viewBox="0 0 16 16"><path fill="currentColor" d="M10 13.5C10 13.776 9.776 14 9.5 14H4.5C3.119 14 2 12.881 2 11.5V3.5C2 2.119 3.119 1 4.5 1H9.5C9.776 1 10 1.224 10 1.5C10 1.776 9.776 2 9.5 2H4.5C3.672 2 3 2.672 3 3.5V11.5C3 12.328 3.672 13 4.5 13H9.5C9.776 13 10 13.224 10 13.5ZM13.854 7.148L10.854 4.148C10.659 3.953 10.342 3.953 10.147 4.148C9.952 4.343 9.952 4.66 10.147 4.855L12.293 7.001H5.5C5.224 7.001 5 7.225 5 7.501C5 7.777 5.224 8.001 5.5 8.001H12.293L10.147 10.147C9.952 10.342 9.952 10.659 10.147 10.854C10.342 11.049 10.659 11.049 10.854 10.854L13.854 7.854C14.049 7.659 14.049 7.343 13.854 7.148Z"/></symbol>
    <!-- screen-full (enter full-screen layout) -->
    <symbol id="i-screen-full" viewBox="0 0 16 16"><path fill="currentColor" d="M3.75 3C3.33579 3 3 3.33579 3 3.75V5.5C3 5.77614 2.77614 6 2.5 6C2.22386 6 2 5.77614 2 5.5V3.75C2 2.7835 2.7835 2 3.75 2H5.5C5.77614 2 6 2.22386 6 2.5C6 2.77614 5.77614 3 5.5 3H3.75ZM10 2.5C10 2.22386 10.2239 2 10.5 2H12.25C13.2165 2 14 2.7835 14 3.75V5.5C14 5.77614 13.7761 6 13.5 6C13.2239 6 13 5.77614 13 5.5V3.75C13 3.33579 12.6642 3 12.25 3H10.5C10.2239 3 10 2.77614 10 2.5ZM2.5 10C2.77614 10 3 10.2239 3 10.5V12.25C3 12.6642 3.33579 13 3.75 13H5.5C5.77614 13 6 13.2239 6 13.5C6 13.7761 5.77614 14 5.5 14H3.75C2.7835 14 2 13.2165 2 12.25V10.5C2 10.2239 2.22386 10 2.5 10ZM13.5 10C13.7761 10 14 10.2239 14 10.5V12.25C14 13.2165 13.2165 14 12.25 14H10.5C10.2239 14 10 13.7761 10 13.5C10 13.2239 10.2239 13 10.5 13H12.25C12.6642 13 13 12.6642 13 12.25V10.5C13 10.2239 13.2239 10 13.5 10Z"/></symbol>
    <!-- screen-normal (exit full-screen layout) -->
    <symbol id="i-screen-normal" viewBox="0 0 16 16"><path fill="currentColor" d="M11 4C11 4.55228 11.4477 5 12 5H13.5C13.7761 5 14 5.22386 14 5.5C14 5.77614 13.7761 6 13.5 6H12C10.8954 6 10 5.10457 10 4V2.5C10 2.22386 10.2239 2 10.5 2C10.7761 2 11 2.22386 11 2.5V4ZM11 12C11 11.4477 11.4477 11 12 11H13.5C13.7761 11 14 10.7761 14 10.5C14 10.2239 13.7761 10 13.5 10H12C10.8954 10 10 10.8954 10 12V13.5C10 13.7761 10.2239 14 10.5 14C10.7761 14 11 13.7761 11 13.5V12ZM4 11C4.55228 11 5 11.4477 5 12V13.5C5 13.7761 5.22386 14 5.5 14C5.77614 14 6 13.7761 6 13.5V12C6 10.8954 5.10457 10 4 10H2.5C2.22386 10 2 10.2239 2 10.5C2 10.7761 2.22386 11 2.5 11H4ZM5 4C5 4.55228 4.55228 5 4 5H2.5C2.22386 5 2 5.22386 2 5.5C2 5.77614 2.22386 6 2.5 6H4C5.10457 6 6 5.10457 6 4V2.5C6 2.22386 5.77614 2 5.5 2C5.22386 2 5 2.22386 5 2.5V4Z"/></symbol>
  </defs>
</svg>
